# xmcd
#
# Track frame offsets:
#	150
#	21840
#	37070
#	56500
#	71567
#	87457
#	105490
#	123962
#	141035
#	162557
#	177784
#	197235
#	212307
#	228140
#	246115
#	264557
#
# Disc length: 3754 seconds
#
# Revision: 1
# Processed by: cddbd v1.5.2PL0 Copyright (c) Steve Scherf et al.
# Submitted via: audiograbber 1.83.01
#
DISCID=db0ea810
DTITLE=Various Artist - SC3205
DYEAR=1900
DGENRE=Karaoke
TTITLE0=Garth Brooks - When You Come Back To Me Again
TTITLE1=Trisha Yearwood - Come Back When It Ain't Rainin'
TTITLE2=Wynonna Judd - Going Nowhere
TTITLE3=Clint Black - Galaxy Song
TTITLE4=Jessica Andrews - I Do Now
TTITLE5=Allison Moorer - Send Down An Angel
TTITLE6=Phil Vassar - Just Another Day In Paradise
TTITLE7=Patty Loveless - That's The Kind Of Mood I'm In
TTITLE8=Garth Brooks - When You Come Back To Me Again (vocals)
TTITLE9=Trisha Yearwood - Come Back When It Ain't Rainin' (vocals)
TTITLE10=Wynonna Judd - Going Nowhere (vocals)
TTITLE11=Clint Black - Galaxy Song (vocals)
TTITLE12=Jessica Andrews - I Do Now (vocals)
TTITLE13=Allison Moorer - Send Down An Angel (vocals)
TTITLE14=Phil Vassar - Just Another Day In Paradise (vocals)
TTITLE15=Patty Loveless - That's The Kind Of Mood I'm In (vocals)
EXTD=
EXTT0=
EXTT1=
EXTT2=
EXTT3=
EXTT4=
EXTT5=
EXTT6=
EXTT7=
EXTT8=
EXTT9=
EXTT10=
EXTT11=
EXTT12=
EXTT13=
EXTT14=
EXTT15=
PLAYORDER=
